<?xml version="1.0" encoding="UTF-8"?>
<svg width="48pt" height="48pt" viewBox="0 0 48 48" preserveAspectRatio="xMidYMid meet" xmlns="http://www.w3.org/2000/svg">
  <defs>
    <filter id="shadow" x="-20%" y="-20%" width="140%" height="140%">
      <feGaussianBlur in="SourceAlpha" stdDeviation="0.5"/>
      <feOffset dx="0" dy="0.5" result="offsetblur"/>
      <feFlood flood-color="#1E293B" flood-opacity="0.15"/>
      <feComposite in2="offsetblur" operator="in"/>
      <feMerge>
        <feMergeNode/>
        <feMergeNode in="SourceGraphic"/>
      </feMerge>
    </filter>
  </defs>
  <g transform="translate(0.000000,48.000000) scale(0.100000,-0.100000)" fill="#1E293B" filter="url(#shadow)" style="stroke-linecap: round; stroke-linejoin: round;">
    <path d="M156 350 c7 -46 3 -48 -36 -20 l-28 20 -16 -25 c-9 -13 -16 -26 -16 -29 0 -3 21 -14 46 -25 44 -20 48 -20 74 -4 28 16 40 47 40 99 0 21 -5 24 -35 24 l-35 0 6 -40z"/>
    <path d="M258 309 c-54 -44 -53 -84 3 -128 22 -18 41 -31 43 -30 38 57 38 59 11 69 -15 6 -31 10 -36 10 -5 0 -9 7 -9 15 0 8 4 15 9 15 5 0 21 4 35 10 25 9 25 10 8 40 -9 16 -19 30 -22 30 -3 -1 -22 -14 -42 -31z"/>
    <path d="M105 223 c-22 -9 -41 -17 -43 -19 -2 -1 4 -16 13 -34 l16 -31 30 26 c38 31 50 25 38 -18 -13 -44 -13 -44 27 -43 l36 1 -5 49 c-3 36 -10 54 -28 67 -29 22 -33 22 -84 2z"/>
  </g>
</svg> 